<svg xmlns="http://www.w3.org/2000/svg" viewBox="0 0 400 500" fill="none">
  <!-- Trunk -->
  <path d="M188 480 L188 310 Q188 290 180 270" stroke="#5D4037" stroke-width="18" stroke-linecap="round" fill="none"/>
  <path d="M212 480 L212 310 Q212 290 220 270" stroke="#5D4037" stroke-width="18" stroke-linecap="round" fill="none"/>
  <path d="M200 480 L200 280" stroke="#6D4C41" stroke-width="10" stroke-linecap="round" fill="none"/>

  <!-- Root flares -->
  <path d="M188 470 Q160 465 145 478" stroke="#5D4037" stroke-width="10" stroke-linecap="round" fill="none"/>
  <path d="M212 470 Q240 465 255 478" stroke="#5D4037" stroke-width="10" stroke-linecap="round" fill="none"/>
  <path d="M200 475 Q200 472 200 480" stroke="#5D4037" stroke-width="8" stroke-linecap="round" fill="none"/>

  <!-- Major branches -->
  <path d="M200 310 Q170 290 140 260" stroke="#6D4C41" stroke-width="11" stroke-linecap="round" fill="none"/>
  <path d="M200 310 Q230 285 265 255" stroke="#6D4C41" stroke-width="11" stroke-linecap="round" fill="none"/>
  <path d="M200 280 Q195 255 190 225" stroke="#6D4C41" stroke-width="9" stroke-linecap="round" fill="none"/>
  <path d="M200 280 Q210 250 215 220" stroke="#6D4C41" stroke-width="8" stroke-linecap="round" fill="none"/>

  <!-- Sub-branches left -->
  <path d="M140 260 Q115 245 100 220" stroke="#795548" stroke-width="7" stroke-linecap="round" fill="none"/>
  <path d="M140 260 Q130 235 125 205" stroke="#795548" stroke-width="6" stroke-linecap="round" fill="none"/>
  <path d="M165 278 Q145 255 130 230" stroke="#795548" stroke-width="5" stroke-linecap="round" fill="none"/>
  <path d="M100 220 Q88 200 80 180" stroke="#8D6E63" stroke-width="5" stroke-linecap="round" fill="none"/>
  <path d="M125 205 Q110 185 105 162" stroke="#8D6E63" stroke-width="4" stroke-linecap="round" fill="none"/>
  <path d="M100 220 Q92 210 85 195" stroke="#8D6E63" stroke-width="3" stroke-linecap="round" fill="none"/>

  <!-- Sub-branches right -->
  <path d="M265 255 Q285 235 302 210" stroke="#795548" stroke-width="7" stroke-linecap="round" fill="none"/>
  <path d="M265 255 Q272 228 275 200" stroke="#795548" stroke-width="6" stroke-linecap="round" fill="none"/>
  <path d="M240 268 Q260 245 270 218" stroke="#795548" stroke-width="5" stroke-linecap="round" fill="none"/>
  <path d="M302 210 Q315 188 320 165" stroke="#8D6E63" stroke-width="5" stroke-linecap="round" fill="none"/>
  <path d="M275 200 Q288 178 292 155" stroke="#8D6E63" stroke-width="4" stroke-linecap="round" fill="none"/>
  <path d="M302 210 Q308 196 312 180" stroke="#8D6E63" stroke-width="3" stroke-linecap="round" fill="none"/>

  <!-- Center branches -->
  <path d="M195 230 Q178 210 165 185" stroke="#795548" stroke-width="5" stroke-linecap="round" fill="none"/>
  <path d="M210 225 Q228 200 238 175" stroke="#795548" stroke-width="5" stroke-linecap="round" fill="none"/>
  <path d="M192 210 Q188 190 185 165" stroke="#8D6E63" stroke-width="4" stroke-linecap="round" fill="none"/>

  <!-- Foliage clusters — main canopy -->
  <!-- Far left cluster -->
  <ellipse cx="82" cy="168" rx="48" ry="42" fill="#2D6A4F" opacity="0.92"/>
  <ellipse cx="68" cy="155" rx="36" ry="32" fill="#40916C" opacity="0.85"/>
  <ellipse cx="98" cy="158" rx="34" ry="30" fill="#1B4332" opacity="0.80"/>
  <ellipse cx="75" cy="178" rx="30" ry="26" fill="#52B788" opacity="0.60"/>

  <!-- Left-center cluster -->
  <ellipse cx="122" cy="145" rx="52" ry="46" fill="#1B4332" opacity="0.90"/>
  <ellipse cx="108" cy="132" rx="40" ry="35" fill="#2D6A4F" opacity="0.85"/>
  <ellipse cx="140" cy="138" rx="38" ry="33" fill="#40916C" opacity="0.80"/>
  <ellipse cx="118" cy="162" rx="34" ry="28" fill="#52B788" opacity="0.55"/>

  <!-- Center-left cluster -->
  <ellipse cx="175" cy="128" rx="55" ry="50" fill="#2D6A4F" opacity="0.92"/>
  <ellipse cx="160" cy="112" rx="44" ry="38" fill="#1B4332" opacity="0.88"/>
  <ellipse cx="192" cy="118" rx="42" ry="36" fill="#40916C" opacity="0.82"/>
  <ellipse cx="170" cy="148" rx="36" ry="30" fill="#52B788" opacity="0.58"/>

  <!-- Top-center cluster -->
  <ellipse cx="200" cy="100" rx="60" ry="55" fill="#1B4332" opacity="0.93"/>
  <ellipse cx="185" cy="82" rx="48" ry="42" fill="#2D6A4F" opacity="0.88"/>
  <ellipse cx="218" cy="88" rx="45" ry="40" fill="#40916C" opacity="0.84"/>
  <ellipse cx="200" cy="118" rx="40" ry="34" fill="#52B788" opacity="0.60"/>
  <ellipse cx="200" cy="72" rx="38" ry="34" fill="#40916C" opacity="0.78"/>

  <!-- Center-right cluster -->
  <ellipse cx="228" cy="128" rx="55" ry="50" fill="#2D6A4F" opacity="0.92"/>
  <ellipse cx="245" cy="112" rx="44" ry="38" fill="#1B4332" opacity="0.88"/>
  <ellipse cx="212" cy="118" rx="42" ry="36" fill="#40916C" opacity="0.82"/>
  <ellipse cx="232" cy="148" rx="36" ry="30" fill="#52B788" opacity="0.58"/>

  <!-- Right-center cluster -->
  <ellipse cx="280" cy="145" rx="52" ry="46" fill="#1B4332" opacity="0.90"/>
  <ellipse cx="295" cy="132" rx="40" ry="35" fill="#2D6A4F" opacity="0.85"/>
  <ellipse cx="262" cy="138" rx="38" ry="33" fill="#40916C" opacity="0.80"/>
  <ellipse cx="282" cy="162" rx="34" ry="28" fill="#52B788" opacity="0.55"/>

  <!-- Far right cluster -->
  <ellipse cx="320" cy="162" rx="48" ry="42" fill="#2D6A4F" opacity="0.92"/>
  <ellipse cx="335" cy="150" rx="36" ry="32" fill="#40916C" opacity="0.85"/>
  <ellipse cx="306" cy="155" rx="34" ry="30" fill="#1B4332" opacity="0.80"/>
  <ellipse cx="324" cy="178" rx="30" ry="26" fill="#52B788" opacity="0.60"/>

  <!-- Highlight touches -->
  <ellipse cx="175" cy="108" rx="22" ry="18" fill="#74C69D" opacity="0.35"/>
  <ellipse cx="220" cy="95" rx="24" ry="20" fill="#74C69D" opacity="0.30"/>
  <ellipse cx="200" cy="85" rx="20" ry="16" fill="#B7E4C7" opacity="0.22"/>
  <ellipse cx="118" cy="128" rx="18" ry="15" fill="#74C69D" opacity="0.28"/>
  <ellipse cx="285" cy="130" rx="18" ry="15" fill="#74C69D" opacity="0.28"/>
</svg>
